<?xml version="1.0" encoding="UTF-8"?>
<!DOCTYPE svg PUBLIC "-//W3C//DTD SVG 1.1//EN" "http://www.w3.org/Graphics/SVG/1.1/DTD/svg11.dtd">
<!-- Creator: CorelDRAW -->
<svg xmlns="http://www.w3.org/2000/svg" xml:space="preserve" width="2.44094in" height="0.866142in" version="1.1" style="shape-rendering:geometricPrecision; text-rendering:geometricPrecision; image-rendering:optimizeQuality; fill-rule:evenodd; clip-rule:evenodd"
viewBox="0 0 2440.94 866.14"
 xmlns:xlink="http://www.w3.org/1999/xlink"
 xmlns:xodm="http://www.corel.com/coreldraw/odm/2003">
 <defs>
  <style type="text/css">
   <![CDATA[
    .fil1 {fill:#007BFF}
    .fil0 {fill:#0F1A22}
    .fil2 {fill:#8B9194}
    .fil3 {fill:#9DA2A5}
   ]]>
  </style>
 </defs>
 <g id="Layer_x0020_1">
  <metadata id="CorelCorpID_0Corel-Layer"/>
  <polygon class="fil0" points="1792.61,758.6 1925.94,758.6 1925.94,541.94 1972.61,541.94 1972.61,758.6 2102.61,758.6 2102.61,241.94 1972.61,241.94 1972.61,425.27 1925.94,425.27 1925.94,241.94 1792.61,241.94 "/>
  <path class="fil1" d="M815.11 831.03c4.3,-12.23 7.62,-9.96 11.09,-22.78l6.07 5.96 6.73 -19.11c7.46,-12.35 4.15,0.89 10.71,-11.58 5.83,-11.07 3.71,-13.54 13.69,-10.52l22.53 -49.98 3.13 -7.75 53.41 -150.26c7.93,-26.6 39.17,-137.59 49.22,-153.26 11.15,140.65 28.8,291.06 85.93,401.94 15.35,29.8 41.12,55.56 71.21,27.81 21.5,-19.82 63.1,-261.55 83.76,-285.09 1.17,-7.57 0.69,-6.46 3.33,-11.93 -7.41,-16.53 82.98,-235.44 103.18,-272.74 28.31,-52.26 33.74,-72.17 71.51,-121.78 50.67,-66.55 34.1,-40.01 69.83,-73.5 16.41,-15.38 5.48,-15.77 34.33,-15.86l-17.33 -6.87c-7.87,-3.35 -0.65,-1.78 -11.2,-2.82 -1.82,-0.18 -7.85,0.44 -12.63,-0.01 3.1,-3.76 2.46,-3.54 4.48,-6.89l5.91 -10.08c-8.93,-1.78 -5.28,-3 -12,-6.79 -0.35,-0.2 -1.19,-0.64 -1.57,-0.83 -0.44,-0.22 -1.39,-0.55 -1.87,-0.76l-9.51 -3.61 13.03 -8.63c-55.62,4.84 -122.8,81.68 -145.06,116.32 -18.28,28.44 -32.72,54.5 -47.18,86.27 -48.06,105.63 -104.83,277.64 -140.43,392.87 -7.17,23.22 -23.9,84.61 -33.5,100.68 -39.06,-46.83 -73.67,-225.17 -81.87,-295.46 -10.13,-86.82 -6.65,-92.11 14.96,-165.72 10.44,-35.56 22.98,-46.43 2.07,-68.15 -18.52,-19.24 -49.16,-21.03 -67.22,-0.25 -17.2,19.8 -76.71,241.22 -92.62,287.43 -16.28,47.27 -32.81,97.4 -45.71,144.28 -13.43,48.83 -35.72,98.8 -40.67,151.38 0.74,-0.67 1.75,-2.9 2.07,-2.19 1.11,2.53 3.13,-3.17 3.67,-3.59 8.16,-6.43 -1.33,-5.77 4.34,-1.91 -3.58,10.48 -9,37.03 -10.7,48.83 15.36,-21.93 9.13,9.4 27.15,-26.74 -4.51,30.15 0.85,33.74 -13.55,62.74 3.75,-4.22 2.79,-2.08 7.26,-9.06l0.02 -0.02z"/>
  <path class="fil0" d="M142.61 668.6l0 -336.67c20.91,10.04 50,-7.69 50,110 0,36.02 5.06,190.5 -16.22,213.78 -7.02,7.68 -19.48,12.57 -33.78,12.88l0 0.01zm-136.67 90l176.67 0c36.95,0 80.86,-24.16 99.3,-44.04 19.87,-21.42 34.04,-68.49 34.04,-109.29l0 -203.33c0,-117.73 -71.35,-160 -190,-160l-120 0 0 516.67 -0.01 -0.01z"/>
  <path class="fil0" d="M1432.61 395.27l0 216.67c0,67.5 15.94,111.6 68.87,141.13 56.16,31.32 109.21,6.76 157.68,5.43 33.95,-0.93 86.78,7.54 86.78,-9.89l0 -266.67 -146.67 0c0.76,34.19 42.27,196.67 -3.33,196.67 -29.15,0 -36.67,-9.2 -36.67,-70 0,-37.15 -7,-257.48 8.55,-278.12 8.04,-10.68 19.11,-8.55 31.45,-8.55 26.72,0 23.33,87.07 23.33,110l123.33 0 -5.12 -81.55c-5.57,-34.36 -8.07,-43.19 -24.79,-65.22 -47.41,-62.48 -181.85,-76.43 -249.4,-9.2 -27.67,27.54 -34.03,65.59 -34.03,119.3l0.02 0z"/>
  <path class="fil0" d="M502.61 371.94l3.33 0c0,55.57 16.67,152.08 16.67,200l-40 0c0,-66.07 20,-157.31 20,-200zm-166.67 386.67l133.33 0 3.55 -66.45c0.77,-10.52 2.86,-12.04 3.12,-23.55l56.67 -3.33c0.25,11.07 1.95,11.79 2.85,20.48l3.82 72.85 133.33 0 -67.58 -385.75c-3.21,-18.69 -7.83,-46.04 -11.56,-65.11 -3.6,-18.43 -10.86,-47.84 -10.86,-65.81l-163.33 0c-1.56,18.7 -7.15,42.91 -10.47,62.87 -9.25,55.61 -72.86,425.41 -72.86,453.8l-0.02 0z"/>
  <path class="fil0" d="M2125.94 251.94l0 86.67c0,17.39 35.29,10 83.33,10l0 410 136.67 0 0 -410 83.33 0 0 -106.67 -293.33 0c-7.68,0 -10,2.32 -10,10z"/>
  <path class="fil0" d="M770.39 758.6l158.45 -516.67 -112.9 0c-0.43,19.19 -12.09,67.48 -16.67,86.67l-20 86.67c-0.31,-14.04 -4.72,-28.08 -7.15,-42.85l-22.85 -130.48 -123.33 0c1.4,16.81 60.94,219.91 66.26,237.08 6.18,19.96 11.5,38.77 17.47,59.2 16.67,57.06 9.61,156.56 9.61,220.39l51.11 0 0 -0.01z"/>
  <path class="fil0" d="M1249.28 568.6l0.01 190 120.43 0.43c19.55,-0.85 16.75,-3.86 16.54,-23.46l-0.29 -490.29 -10.22 0c-26.98,44.46 -50.21,96.24 -71.35,151.72 -11.82,31.02 -53.51,141.93 -55.1,171.61l-0.02 -0.01z"/>
  <path class="fil2" d="M839.02 795.11c1.11,-0.03 6.2,0.37 6.83,0.5l5.08 1.35c4.25,-5.54 10.55,-17.83 12.49,-23.95 -9.98,-3.01 -7.86,-0.55 -13.69,10.52 -6.56,12.46 -3.25,-0.77 -10.71,11.58z"/>
  <path class="fil3" d="M815.11 831.03c0.58,0.81 1.96,0.59 2.37,1.83 3.48,10.46 -3.73,-4.89 6.3,3.65l8.5 -22.3 -6.07 -5.96c-3.47,12.82 -6.8,10.54 -11.09,22.78l-0.01 0z"/>
 </g>
</svg>
